<?xml version="1.0" standalone="no"?>
<!DOCTYPE svg PUBLIC "-//W3C//DTD SVG 20010904//EN"
 "http://www.w3.org/TR/2001/REC-SVG-20010904/DTD/svg10.dtd">
<svg version="1.0" xmlns="http://www.w3.org/2000/svg"
 width="96.000000pt" height="96.000000pt" viewBox="0 0 96.000000 96.000000"
 preserveAspectRatio="xMidYMid meet">

<g transform="translate(0.000000,96.000000) scale(0.100000,-0.100000)"
fill="#000000" stroke="none">
<path d="M361 944 c-253 -68 -410 -331 -346 -579 67 -256 329 -415 580 -350
190 50 330 207 358 401 48 331 -270 615 -592 528z m313 -286 c8 -13 8 -23 0
-35 -10 -16 -32 -18 -189 -21 -182 -3 -205 2 -205 37 0 38 18 42 204 39 158
-3 180 -5 190 -20z m0 -160 c8 -13 8 -23 0 -35 -10 -16 -32 -18 -189 -21 -182
-3 -205 2 -205 37 0 38 18 42 204 39 158 -3 180 -5 190 -20z m0 -160 c8 -13 8
-23 0 -35 -10 -16 -32 -18 -189 -21 -182 -3 -205 2 -205 37 0 38 18 42 204 39
158 -3 180 -5 190 -20z"/>
</g>
</svg>
